<?xml version="1.0" encoding="UTF-8" standalone="no"?>
<!-- Created with Inkscape (http://www.inkscape.org/) -->

<svg
   xmlns:dc="http://purl.org/dc/elements/1.1/"
   xmlns:cc="http://creativecommons.org/ns#"
   xmlns:rdf="http://www.w3.org/1999/02/22-rdf-syntax-ns#"
   xmlns:svg="http://www.w3.org/2000/svg"
   xmlns="http://www.w3.org/2000/svg"
   xmlns:sodipodi="http://sodipodi.sourceforge.net/DTD/sodipodi-0.dtd"
   xmlns:inkscape="http://www.inkscape.org/namespaces/inkscape"
   width="37mm"
   height="26mm"
   viewBox="0 0 131.10236 92.125983"
   id="svg6085"
   version="1.1"
   inkscape:version="0.91 r13725"
   sodipodi:docname="location.svg">
  <defs
     id="defs6087" />
  <sodipodi:namedview
     id="base"
     pagecolor="#ffffff"
     bordercolor="#666666"
     borderopacity="1.0"
     inkscape:pageopacity="0.0"
     inkscape:pageshadow="2"
     inkscape:zoom="1.979899"
     inkscape:cx="98.12576"
     inkscape:cy="161.80329"
     inkscape:document-units="px"
     inkscape:current-layer="layer1"
     showgrid="false"
     inkscape:window-width="1920"
     inkscape:window-height="1017"
     inkscape:window-x="-8"
     inkscape:window-y="-8"
     inkscape:window-maximized="1"
     showguides="true"
     inkscape:guide-bbox="true" />
  <metadata
     id="metadata6090">
    <rdf:RDF>
      <cc:Work
         rdf:about="">
        <dc:format>image/svg+xml</dc:format>
        <dc:type
           rdf:resource="http://purl.org/dc/dcmitype/StillImage" />
        <dc:title></dc:title>
      </cc:Work>
    </rdf:RDF>
  </metadata>
  <g
     inkscape:label="Laag 1"
     inkscape:groupmode="layer"
     id="layer1"
     transform="translate(0,-960.23623)">
    <path
       style="opacity:1;fill:#6c5353;fill-opacity:0.94509804;fill-rule:nonzero;stroke:none;stroke-width:1.58158517;stroke-miterlimit:4;stroke-dasharray:1.58158517, 3.16317034;stroke-dashoffset:0;stroke-opacity:1"
       d=""
       id="path6839"
       inkscape:connector-curvature="0"
       transform="translate(0,960.23623)" />
    <path
       style="opacity:1;fill:#6c5353;fill-opacity:0.78431373;fill-rule:nonzero;stroke:none;stroke-width:1.58158517;stroke-miterlimit:4;stroke-dasharray:1.58158517, 3.16317034;stroke-dashoffset:0;stroke-opacity:1"
       d="m -346.34495,781.39483 0,-21.4652 4.84306,-4.20213 c 2.66367,-2.31092 10.54131,-9.02942 17.50583,-14.92992 l 12.66279,-10.72817 3.40199,2.81733 c 1.8711,1.54951 9.88695,8.31951 17.81303,15.04443 l 14.41103,12.22716 0.12294,21.3508 0.12294,21.3507 -35.4418,0 -35.44181,0 0,-21.465 z"
       id="path13616"
       inkscape:connector-curvature="0"
       inkscape:transform-center-x="-23.949021"
       inkscape:transform-center-y="8.7087232" />
    <path
       style="opacity:1;fill:#6c5353;fill-opacity:0.78431373;fill-rule:nonzero;stroke:none;stroke-width:1.58158517;stroke-miterlimit:4;stroke-dasharray:1.58158517, 3.16317034;stroke-dashoffset:0;stroke-opacity:1"
       d="m -351.13251,805.96173 c -0.12967,-1.0472 -0.27187,-17.5056 -0.29109,-33.6908 l -0.0175,-14.71038 0.97488,-0.81844 c 0.53619,-0.45014 5.52057,-4.68513 11.07641,-9.41109 21.13474,-17.97784 27.26809,-23.08308 27.93169,-23.24964 0.42994,-0.1079 0.97833,0.33292 12.41111,9.97663 2.6042,2.19668 4.77761,3.99397 4.82979,3.99397 0.0522,0 0.0949,-1.84668 0.0949,-4.10374 l 0,-4.10375 -0.56821,0 -0.56821,0 0,-0.94702 0,-0.94701 6.43972,0 6.43972,0 0,0.96135 0,0.96135 -0.37881,-0.0556 -0.3788,-0.0556 0,8.68324 c 0,5.71405 -0.0436,8.71022 -0.12763,8.76212 -0.22277,0.13768 0.17882,0.55269 1.81729,1.87802 0.86888,0.70283 3.63182,3.01091 6.13986,5.12908 l 4.56007,3.8512 -0.0783,24.11741 c -0.0508,15.6448 -0.12219,24.1617 -0.20331,24.2437 -0.0827,0.083 -13.66195,0.1398 -40.07275,0.1664 l -39.94771,0.04 -0.0832,-0.6715 z m 77.97085,-24.2582 0,-23.0185 -9.37068,-7.94897 c -15.88485,-13.47484 -23.49461,-19.88532 -28.29092,-23.83235 -0.56218,-0.46263 -0.62014,-0.48289 -0.88389,-0.30898 -0.67822,0.44722 -8.72635,7.24263 -27.85108,23.51595 l -9.34882,7.95495 -0.008,23.2591 -0.008,23.259 0.78919,0.045 c 0.43405,0.025 17.48037,0.056 37.88071,0.069 l 37.09154,0.024 0,-23.0185 z m -12.2481,-43.77782 0,-8.08122 -3.21383,0 -3.21384,0 -0.0448,-0.78918 c -0.0247,-0.43405 -0.0558,1.93857 -0.0692,5.27248 l -0.0243,6.06166 0.3571,0.15807 c 0.32329,0.1431 1.97348,1.48741 4.98527,4.0612 0.63483,0.54251 1.09735,1.0348 1.09735,1.16799 0,0.12662 0.0284,0.23022 0.0631,0.23022 0.0347,0 0.0631,-3.63655 0.0631,-8.08122 z"
       id="path13643"
       inkscape:connector-curvature="0" />
    <path
       style="opacity:1;fill:#6c5353;fill-opacity:0.78431373;fill-rule:nonzero;stroke:none;stroke-width:1.58158517;stroke-miterlimit:4;stroke-dasharray:1.58158517, 3.16317034;stroke-dashoffset:0;stroke-opacity:1"
       d="m -286.57862,743.11674 c -1.07016,-0.97203 -3.69772,-3.13311 -4.17635,-3.43492 l -0.49997,-0.31525 0.0659,-1.52355 c 0.0363,-0.83795 0.0659,-2.73405 0.0659,-4.21354 l 0,-2.69 2.60411,0 2.60411,0 -0.0143,4.21253 c -0.008,2.31689 -0.0423,5.16113 -0.0766,6.32052 l -0.0623,2.10799 -0.51061,-0.46378 z"
       id="path13645"
       inkscape:connector-curvature="0" />
    <rect
       style="opacity:1;fill:#ffffff;fill-opacity:0.78431373;fill-rule:nonzero;stroke:none;stroke-width:1.58158517;stroke-miterlimit:4;stroke-dasharray:1.58158517, 3.16317034;stroke-dashoffset:0;stroke-opacity:1"
       id="rect13647"
       width="16.920055"
       height="32.829956"
       x="-337.78281"
       y="770.0224" />
    <path
       style="opacity:1;fill:#6c5353;fill-opacity:0.78431373;fill-rule:nonzero;stroke:none;stroke-width:1.58158517;stroke-miterlimit:4;stroke-dasharray:1.58158517, 3.16317034;stroke-dashoffset:0;stroke-opacity:1"
       d="m -335.88949,786.72793 0,-14.8129 6.31346,0 6.31345,0 0,14.8129 0,14.813 -6.31345,0 -6.31346,0 0,-14.813 z"
       id="path13649"
       inkscape:connector-curvature="0" />
    <g
       id="g4846"
       transform="matrix(0.49031525,0,0,0.49031525,-35.655976,650.97373)">
      <path
         inkscape:connector-curvature="0"
         id="path4838"
         d="m 186.64387,756.49047 c -27.51512,-55.54651 -26.40746,-52.89907 -26.475,-63.27942 -0.056,-8.62007 1.46032,-14.84851 5.43363,-22.31749 12.76581,-23.99731 43.75754,-34.35979 69.24677,-23.15373 11.62417,5.1104 21.55731,15.3883 25.55814,26.44509 2.31845,6.40739 2.94227,10.51765 2.67229,17.60753 -0.16611,4.36222 -0.53905,7.34314 -1.23961,9.90818 -0.73154,2.67854 -6.73726,15.25769 -22.24879,46.60082 -11.68571,23.61254 -22.88735,46.20192 -24.89253,50.19854 l -3.64579,7.26664 -24.40911,-49.27616 z"
         style="opacity:1;fill:#6c5353;fill-opacity:0.78431373;fill-rule:nonzero;stroke:#000000;stroke-width:2.42600012;stroke-miterlimit:4;stroke-dasharray:none;stroke-dashoffset:0;stroke-opacity:1" />
      <ellipse
         ry="26.263966"
         rx="25.253813"
         cy="688.70728"
         cx="212.13203"
         id="path4840"
         style="opacity:1;fill:#ffffff;fill-opacity:0.78431373;fill-rule:nonzero;stroke:#000000;stroke-width:1.58200002;stroke-miterlimit:4;stroke-dasharray:none;stroke-dashoffset:0;stroke-opacity:1" />
    </g>
  </g>
</svg>
